<svg id="svg" version="1.1" width="702" height="530" xmlns="http://www.w3.org/2000/svg" xmlns:xlink="http://www.w3.org/1999/xlink" style="display: block;"><g id="svgg"><path id="path0" d="" stroke="none" fill="#082887" fill-rule="evenodd"></path><path id="path1" d="M194.354 73.199 L 190.318 80.871 192.911 87.017 C 199.436 102.478,198.728 101.406,200.074 97.863 C 200.580 96.531,202.366 92.139,204.044 88.103 L 207.093 80.764 203.119 73.150 C 200.934 68.962,198.975 65.534,198.768 65.532 C 198.560 65.529,196.574 68.980,194.354 73.199 M170.410 77.635 C 170.432 78.027,171.650 81.900,173.117 86.241 L 175.783 94.135 182.051 96.658 C 185.499 98.045,189.813 99.837,191.639 100.639 C 195.924 102.521,195.888 102.752,192.548 94.836 C 190.970 91.095,189.164 86.694,188.535 85.055 C 187.525 82.424,187.138 82.007,185.219 81.490 C 184.023 81.169,180.339 80.009,177.032 78.914 C 170.191 76.649,170.357 76.681,170.410 77.635 M218.040 79.619 C 211.992 81.614,210.041 82.499,209.665 83.418 C 208.203 86.986,205.401 93.667,203.848 97.288 C 201.750 102.178,201.848 102.390,205.475 100.806 C 207.008 100.137,211.083 98.445,214.530 97.045 C 222.549 93.791,222.107 94.429,226.404 79.915 C 227.476 76.290,228.069 76.311,218.040 79.619 M166.783 100.873 C 162.773 102.960,159.251 104.909,158.956 105.203 C 158.622 105.537,161.404 107.218,166.348 109.670 L 174.275 113.601 181.867 110.564 C 189.807 107.388,193.979 105.467,193.645 105.141 C 193.462 104.963,184.521 101.259,177.208 98.332 L 174.074 97.077 166.783 100.873 M214.530 100.635 C 210.456 102.366,206.417 104.046,205.556 104.368 C 203.386 105.180,203.571 105.514,206.990 106.952 C 208.630 107.642,212.739 109.373,216.122 110.798 C 219.505 112.224,222.676 113.390,223.167 113.390 C 224.190 113.390,238.727 105.881,238.739 105.347 C 238.752 104.757,224.132 97.434,222.998 97.462 C 222.415 97.477,218.604 98.905,214.530 100.635 M189.744 110.901 C 187.080 112.012,182.849 113.756,180.342 114.776 L 175.783 116.631 173.005 125.006 C 171.477 129.612,170.338 133.491,170.473 133.626 C 170.609 133.761,174.472 132.670,179.060 131.201 L 187.400 128.531 189.114 124.237 C 190.519 120.720,192.339 116.367,195.259 109.544 C 195.699 108.515,195.129 108.655,189.744 110.901 M202.453 109.829 C 204.907 117.801,210.209 128.529,212.008 129.162 C 216.631 130.791,226.956 133.917,227.132 133.742 C 227.298 133.576,222.270 117.402,221.900 116.912 C 221.768 116.737,219.853 115.927,208.025 111.046 C 201.813 108.482,202.055 108.535,202.453 109.829 M196.684 114.672 C 195.743 116.944,193.947 121.311,192.694 124.377 L 190.416 129.950 194.562 137.958 L 198.709 145.967 202.406 138.938 C 207.270 129.690,207.160 130.245,205.120 125.300 C 204.163 122.980,202.427 118.711,201.263 115.813 C 198.719 109.483,198.825 109.510,196.684 114.672 M24.146 213.080 C 24.003 213.223,24.730 213.738,25.761 214.225 L 27.635 215.110 27.801 228.780 C 27.993 244.589,27.844 245.994,25.895 246.735 C 23.480 247.654,24.333 247.863,30.484 247.863 C 36.058 247.863,38.839 247.025,34.615 246.617 C 32.397 246.403,32.020 244.859,31.951 235.704 L 31.909 230.098 36.324 230.300 C 40.710 230.502,40.745 230.516,41.650 232.432 C 42.751 234.763,43.155 234.271,43.364 230.347 C 43.523 227.355,43.044 225.883,42.431 227.480 C 42.174 228.149,40.960 228.365,37.005 228.445 L 31.909 228.548 31.909 221.599 L 31.909 214.651 36.452 215.030 C 42.068 215.498,42.542 215.677,43.000 217.503 C 43.502 219.501,44.248 218.495,44.574 215.385 L 44.842 212.821 34.624 212.821 C 29.004 212.821,24.289 212.937,24.146 213.080 M341.311 213.637 C 341.311 213.930,342.006 214.250,342.855 214.350 C 344.991 214.599,345.176 215.634,345.242 227.706 C 345.318 241.427,346.522 244.714,352.422 247.302 C 357.803 249.662,367.345 247.916,369.455 244.184 C 369.802 243.570,370.406 242.718,370.798 242.291 C 371.189 241.864,371.530 241.212,371.554 240.842 C 371.578 240.473,371.726 239.658,371.884 239.031 C 372.439 236.829,372.575 234.385,372.682 224.675 L 372.790 214.877 374.429 214.306 C 377.143 213.360,376.335 213.105,370.622 213.105 C 367.136 213.105,365.302 213.311,365.527 213.675 C 365.721 213.989,366.490 214.245,367.236 214.245 C 369.274 214.245,369.328 214.569,369.257 226.374 C 369.159 242.793,367.364 246.372,359.227 246.380 C 351.495 246.388,349.614 242.630,349.457 226.870 C 349.342 215.265,349.620 213.401,351.364 214.070 C 351.726 214.209,352.191 214.049,352.398 213.714 C 352.655 213.298,350.962 213.105,347.042 213.105 C 343.873 213.105,341.311 213.343,341.311 213.637 M65.817 224.335 C 64.333 228.030,63.072 231.311,63.014 231.624 C 62.956 231.937,62.591 232.771,62.203 233.476 C 61.816 234.181,61.667 234.758,61.873 234.758 C 62.079 234.758,61.975 235.086,61.643 235.487 C 61.310 235.888,60.262 238.229,59.315 240.689 C 57.361 245.764,56.234 247.290,54.733 246.897 C 54.159 246.747,53.518 246.903,53.307 247.244 C 53.043 247.671,54.434 247.863,57.801 247.863 C 60.673 247.863,62.678 247.629,62.678 247.293 C 62.678 246.980,62.293 246.724,61.823 246.724 C 60.623 246.724,60.789 244.784,62.335 240.741 L 63.643 237.322 68.394 237.155 C 72.953 236.994,74.095 237.364,74.122 239.008 C 74.124 239.165,74.773 240.756,75.564 242.543 C 76.354 244.331,76.879 246.259,76.731 246.828 C 76.486 247.764,76.892 247.863,80.965 247.863 C 83.589 247.863,85.470 247.625,85.470 247.293 C 85.470 246.980,84.869 246.724,84.134 246.724 C 82.235 246.724,78.833 241.730,77.728 237.322 C 77.391 235.974,74.479 229.282,73.948 228.632 C 73.627 228.241,73.503 227.920,73.672 227.920 C 74.224 227.920,69.793 218.041,69.145 217.825 C 68.795 217.708,67.315 220.603,65.817 224.335 M130.774 224.335 C 129.291 228.030,128.029 231.311,127.971 231.624 C 127.913 231.937,127.548 232.771,127.161 233.476 C 126.773 234.181,126.624 234.758,126.830 234.758 C 127.036 234.758,126.933 235.086,126.600 235.487 C 126.267 235.888,125.220 238.229,124.272 240.689 C 122.318 245.764,121.192 247.290,119.690 246.897 C 119.116 246.747,118.475 246.903,118.264 247.244 C 118.000 247.671,119.392 247.863,122.758 247.863 C 125.630 247.863,127.635 247.629,127.635 247.293 C 127.635 246.980,127.251 246.724,126.781 246.724 C 125.580 246.724,125.746 244.784,127.292 240.741 L 128.600 237.322 133.352 237.155 C 137.910 236.994,139.052 237.364,139.079 239.008 C 139.082 239.165,139.731 240.756,140.521 242.543 C 141.312 244.331,141.837 246.259,141.688 246.828 C 141.443 247.764,141.850 247.863,145.922 247.863 C 148.546 247.863,150.427 247.625,150.427 247.293 C 150.427 246.980,149.826 246.724,149.091 246.724 C 147.192 246.724,143.790 241.730,142.686 237.322 C 142.348 235.974,139.436 229.282,138.905 228.632 C 138.584 228.241,138.460 227.920,138.630 227.920 C 139.181 227.920,134.751 218.041,134.102 217.825 C 133.752 217.708,132.272 220.603,130.774 224.335 M271.515 224.335 C 270.031 228.030,268.770 231.311,268.712 231.624 C 268.654 231.937,268.289 232.771,267.901 233.476 C 267.514 234.181,267.365 234.758,267.571 234.758 C 267.777 234.758,267.673 235.086,267.341 235.487 C 267.008 235.888,265.960 238.229,265.013 240.689 C 263.059 245.764,261.932 247.290,260.431 246.897 C 259.857 246.747,259.216 246.903,259.005 247.244 C 258.741 247.671,260.132 247.863,263.499 247.863 C 266.371 247.863,268.376 247.629,268.376 247.293 C 268.376 246.980,267.991 246.724,267.521 246.724 C 266.321 246.724,266.487 244.784,268.033 240.741 L 269.341 237.322 274.092 237.155 C 278.651 236.994,279.793 237.364,279.820 239.008 C 279.822 239.165,280.471 240.756,281.262 242.543 C 282.052 244.331,282.577 246.259,282.429 246.828 C 282.184 247.764,282.590 247.863,286.663 247.863 C 289.287 247.863,291.168 247.625,291.168 247.293 C 291.168 246.980,290.567 246.724,289.832 246.724 C 287.933 246.724,284.531 241.730,283.426 237.322 C 283.089 235.974,280.177 229.282,279.646 228.632 C 279.325 228.241,279.201 227.920,279.370 227.920 C 279.922 227.920,275.491 218.041,274.843 217.825 C 274.493 217.708,273.013 220.603,271.515 224.335 M97.179 218.748 C 97.477 219.031,98.234 219.355,98.860 219.468 C 99.957 219.665,100.006 220.183,100.153 233.056 C 100.339 249.229,99.950 251.751,96.784 254.917 C 94.350 257.351,94.304 258.197,96.674 256.933 C 103.284 253.408,104.264 250.515,104.278 234.473 C 104.290 220.732,104.450 219.373,106.049 219.373 C 106.640 219.373,107.123 219.117,107.123 218.803 C 107.123 218.465,104.995 218.234,101.880 218.234 C 98.741 218.234,96.855 218.440,97.179 218.748 M161.540 218.806 C 161.751 219.148,162.479 219.351,163.156 219.258 C 164.380 219.089,164.389 219.167,164.672 232.094 C 164.955 244.986,164.786 246.724,163.253 246.724 C 162.817 246.724,162.302 246.980,162.108 247.293 C 161.883 247.658,163.717 247.863,167.203 247.863 C 172.207 247.863,174.766 247.043,171.085 246.619 C 169.244 246.407,168.832 245.107,168.728 239.174 L 168.661 235.328 171.178 235.328 C 174.251 235.328,175.499 235.762,175.499 236.831 C 175.499 237.277,175.883 237.790,176.353 237.971 C 176.823 238.151,177.208 238.614,177.208 238.999 C 177.208 239.384,178.939 241.505,181.054 243.712 L 184.900 247.724 188.800 247.826 C 191.414 247.894,192.577 247.729,192.327 247.325 C 192.123 246.994,191.349 246.724,190.608 246.724 C 188.846 246.724,186.633 244.810,182.074 239.344 C 177.694 234.092,177.862 234.834,180.319 231.616 C 183.649 227.253,183.524 222.412,180.016 219.914 C 179.098 219.260,178.348 218.903,178.348 219.119 C 178.348 219.336,178.027 219.250,177.635 218.928 C 176.629 218.103,161.032 217.984,161.540 218.806 M227.778 218.928 L 229.630 219.538 229.630 232.858 L 229.630 246.178 228.079 246.878 C 226.634 247.531,226.799 247.598,230.500 247.863 C 235.500 248.222,243.280 247.671,243.781 246.922 C 243.989 246.611,244.607 246.191,245.153 245.989 C 250.063 244.178,249.166 234.930,243.812 232.161 L 242.175 231.315 243.880 228.962 C 248.821 222.141,244.975 218.383,233.011 218.342 C 227.224 218.322,226.265 218.429,227.778 218.928 M302.850 218.806 C 303.062 219.148,303.789 219.351,304.466 219.258 C 305.691 219.089,305.700 219.167,305.983 232.094 C 306.265 244.986,306.097 246.724,304.564 246.724 C 304.128 246.724,303.612 246.980,303.419 247.293 C 303.193 247.658,305.027 247.863,308.513 247.863 C 313.518 247.863,316.076 247.043,312.396 246.619 C 310.554 246.407,310.143 245.107,310.039 239.174 L 309.972 235.328 312.489 235.328 C 315.562 235.328,316.809 235.762,316.809 236.831 C 316.809 237.277,317.194 237.790,317.664 237.971 C 318.134 238.151,318.519 238.614,318.519 238.999 C 318.519 239.384,320.249 241.505,322.365 243.712 L 326.211 247.724 330.110 247.826 C 332.725 247.894,333.887 247.729,333.638 247.325 C 333.433 246.994,332.660 246.724,331.919 246.724 C 330.157 246.724,327.944 244.810,323.385 239.344 C 319.004 234.092,319.173 234.834,321.629 231.616 C 324.960 227.253,324.834 222.412,321.326 219.914 C 320.409 219.260,319.658 218.903,319.658 219.119 C 319.658 219.336,319.338 219.250,318.946 218.928 C 317.940 218.103,302.342 217.984,302.850 218.806 M174.192 220.267 C 175.626 220.558,177.962 222.658,178.269 223.932 C 179.195 227.771,178.622 230.514,176.255 233.568 C 176.005 233.892,170.883 233.673,169.658 233.286 C 168.786 233.011,168.661 232.164,168.661 226.505 C 168.661 218.967,168.527 219.118,174.192 220.267 M241.168 222.404 C 243.552 226.148,241.248 230.579,236.774 230.858 L 233.617 231.054 233.617 225.533 L 233.618 220.012 235.755 219.835 C 238.119 219.639,239.965 220.516,241.168 222.404 M315.503 220.267 C 316.936 220.558,319.272 222.658,319.579 223.932 C 320.506 227.771,319.932 230.514,317.566 233.568 C 317.315 233.892,312.194 233.673,310.969 233.286 C 310.096 233.011,309.972 232.164,309.972 226.505 C 309.972 218.967,309.837 219.118,315.503 220.267 M70.557 229.829 C 71.551 232.446,72.365 234.754,72.365 234.957 C 72.365 235.161,70.548 235.328,68.329 235.328 C 66.109 235.328,64.378 235.124,64.482 234.875 C 64.587 234.627,65.422 232.319,66.338 229.747 C 68.385 224.000,68.343 224.000,70.557 229.829 M135.515 229.829 C 136.509 232.446,137.322 234.754,137.322 234.957 C 137.322 235.161,135.506 235.328,133.286 235.328 C 131.066 235.328,129.335 235.124,129.440 234.875 C 129.544 234.627,130.379 232.319,131.295 229.747 C 133.342 224.000,133.300 224.000,135.515 229.829 M276.255 229.829 C 277.249 232.446,278.063 234.754,278.063 234.957 C 278.063 235.161,276.246 235.328,274.027 235.328 C 271.807 235.328,270.076 235.124,270.180 234.875 C 270.285 234.627,271.120 232.319,272.036 229.747 C 274.083 224.000,274.041 224.000,276.255 229.829 M240.910 233.968 C 247.033 237.950,245.073 246.171,238.007 246.145 C 234.108 246.131,233.950 245.857,233.705 238.691 L 233.487 232.314 236.544 232.715 C 238.225 232.936,240.190 233.500,240.910 233.968 M89.601 264.769 C 86.741 267.616,88.555 272.278,92.711 272.758 C 96.001 273.138,97.436 272.234,97.436 269.781 C 97.436 267.440,96.451 267.118,96.192 269.373 C 95.989 271.137,92.457 271.962,90.843 270.622 C 89.706 269.678,89.819 266.457,91.026 265.402 C 91.990 264.558,92.515 264.535,95.869 265.192 C 96.981 265.410,97.436 265.266,97.436 264.697 C 97.436 262.759,91.566 262.814,89.601 264.769 M105.672 264.646 C 102.596 267.723,104.437 272.325,108.925 272.773 C 112.430 273.123,114.758 271.255,114.758 268.091 C 114.758 263.718,108.843 261.475,105.672 264.646 M122.507 268.091 L 122.507 272.934 125.071 272.934 C 126.971 272.934,127.635 272.713,127.635 272.080 C 127.635 271.510,127.066 271.225,125.926 271.225 L 124.217 271.225 124.217 267.236 C 124.217 264.071,124.040 263.248,123.362 263.248 C 122.669 263.248,122.507 264.166,122.507 268.091 M135.043 268.091 L 135.043 272.934 137.929 272.934 C 141.510 272.934,142.824 272.258,143.794 269.918 C 145.327 266.218,142.798 263.248,138.114 263.248 L 135.043 263.248 135.043 268.091 M162.043 264.067 C 161.855 264.558,161.854 265.571,162.041 266.318 C 162.257 267.177,162.070 267.935,161.533 268.381 C 160.458 269.273,160.441 271.064,161.498 272.120 C 162.479 273.102,164.763 273.186,165.674 272.275 C 166.173 271.775,166.550 271.795,167.226 272.356 C 168.311 273.256,169.072 272.692,168.196 271.637 C 167.851 271.221,167.716 270.317,167.897 269.628 C 168.243 268.306,167.582 267.974,166.586 268.970 C 166.173 269.382,165.764 269.289,165.247 268.667 C 164.625 267.917,164.666 267.652,165.497 267.044 C 167.200 265.799,166.440 263.566,164.241 263.354 C 162.962 263.231,162.279 263.452,162.043 264.067 M184.184 263.960 C 184.313 264.352,185.245 264.754,186.255 264.853 C 189.031 265.126,188.829 270.899,186.040 271.006 C 183.418 271.107,183.331 271.162,184.287 272.118 C 186.921 274.751,189.721 271.875,189.735 266.524 L 189.744 263.248 186.847 263.248 C 184.785 263.248,184.018 263.453,184.184 263.960 M197.151 268.091 L 197.151 272.934 200.855 272.934 C 203.767 272.934,204.558 272.752,204.558 272.080 C 204.558 271.434,203.862 271.225,201.709 271.225 C 199.240 271.225,198.860 271.073,198.860 270.085 C 198.860 269.136,199.240 268.946,201.140 268.946 C 202.786 268.946,203.419 268.708,203.419 268.091 C 203.419 267.474,202.786 267.236,201.140 267.236 C 199.240 267.236,198.860 267.047,198.860 266.097 C 198.860 265.126,199.240 264.957,201.425 264.957 C 203.324 264.957,203.989 264.736,203.989 264.103 C 203.989 263.438,203.229 263.248,200.570 263.248 L 197.151 263.248 197.151 268.091 M210.933 263.960 C 213.457 273.380,214.954 274.684,216.760 269.038 L 217.914 265.430 219.119 269.040 C 220.770 273.983,221.661 273.938,223.379 268.822 C 225.273 263.183,225.262 263.248,224.332 263.248 C 223.652 263.248,222.009 267.277,221.951 269.088 C 221.903 270.586,220.634 269.023,219.753 266.382 C 218.332 262.119,217.303 262.202,216.213 266.667 C 216.175 266.823,215.811 267.721,215.404 268.661 L 214.663 270.370 213.490 266.809 C 212.529 263.894,210.229 261.330,210.933 263.960 M231.909 268.091 L 231.909 272.934 235.660 272.934 C 240.116 272.934,240.626 271.620,236.280 271.336 C 232.768 271.107,232.316 269.125,235.711 268.838 C 238.717 268.584,238.914 267.236,235.945 267.236 C 232.478 267.236,232.523 265.103,235.996 264.848 C 239.938 264.557,239.430 263.248,235.375 263.248 L 231.909 263.248 231.909 268.091 M246.724 268.091 L 246.724 272.934 249.288 272.934 C 251.187 272.934,251.852 272.713,251.852 272.080 C 251.852 271.510,251.282 271.225,250.142 271.225 L 248.433 271.225 248.433 267.236 C 248.433 264.071,248.257 263.248,247.578 263.248 C 246.886 263.248,246.724 264.166,246.724 268.091 M259.259 268.091 L 259.259 272.934 262.441 272.934 C 266.103 272.934,266.607 271.633,263.061 271.333 L 260.969 271.156 260.969 267.202 C 260.969 264.067,260.792 263.248,260.114 263.248 C 259.421 263.248,259.259 264.166,259.259 268.091 M271.795 268.091 L 271.795 272.934 275.499 272.934 C 278.411 272.934,279.202 272.752,279.202 272.080 C 279.202 271.434,278.506 271.225,276.353 271.225 C 273.884 271.225,273.504 271.073,273.504 270.085 C 273.504 269.136,273.884 268.946,275.783 268.946 C 277.430 268.946,278.063 268.708,278.063 268.091 C 278.063 267.474,277.430 267.236,275.783 267.236 C 273.884 267.236,273.504 267.047,273.504 266.097 C 273.504 265.126,273.884 264.957,276.068 264.957 C 277.968 264.957,278.632 264.736,278.632 264.103 C 278.632 263.438,277.873 263.248,275.214 263.248 L 271.795 263.248 271.795 268.091 M286.610 268.091 C 286.610 272.016,286.772 272.934,287.464 272.934 C 287.996 272.934,288.319 272.396,288.319 271.510 C 288.319 269.263,291.612 269.602,292.474 271.937 C 292.676 272.486,293.234 272.934,293.714 272.934 C 294.905 272.934,294.811 272.391,293.348 270.834 C 292.361 269.784,292.291 269.516,293.002 269.516 C 294.706 269.516,295.202 265.654,293.691 264.143 C 293.097 263.549,291.755 263.248,289.703 263.248 L 286.610 263.248 286.610 268.091 M301.025 263.675 C 301.155 263.910,301.995 265.374,302.892 266.928 C 303.876 268.636,304.455 270.383,304.354 271.344 C 304.235 272.482,304.443 272.934,305.085 272.934 C 305.670 272.934,305.983 272.422,305.983 271.463 C 305.983 270.654,306.872 268.475,307.959 266.620 C 309.046 264.765,309.669 263.248,309.343 263.248 C 308.588 263.248,307.491 264.343,306.623 265.966 C 305.692 267.705,305.141 267.568,303.704 265.242 C 302.710 263.635,300.181 262.156,301.025 263.675 M165.242 265.209 C 165.242 266.323,164.138 266.930,163.419 266.211 C 163.097 265.889,163.007 265.348,163.217 265.007 C 163.776 264.103,165.242 264.249,165.242 265.209 M112.590 266.385 C 113.856 268.317,112.784 271.190,110.757 271.296 C 108.205 271.430,107.975 271.411,106.980 270.972 C 105.779 270.444,105.544 265.799,106.695 265.335 C 108.813 264.480,111.676 264.990,112.590 266.385 M142.261 266.447 C 143.784 268.772,142.382 270.880,139.156 271.115 L 136.752 271.291 136.752 268.124 L 136.752 264.957 139.018 264.957 C 140.833 264.957,141.479 265.254,142.261 266.447 M293.084 265.812 C 293.723 267.479,292.832 268.376,290.537 268.376 C 288.452 268.376,288.319 268.273,288.319 266.667 C 288.319 264.712,292.382 263.984,293.084 265.812 M164.684 271.456 C 162.986 272.213,161.281 270.570,162.385 269.240 C 163.060 268.427,163.270 268.466,164.508 269.629 L 165.883 270.920 164.684 271.456 " stroke="none" fill="#0e3388" fill-rule="evenodd"></path><path id="path2" d="" stroke="none" fill="#0d3289" fill-rule="evenodd"></path><path id="path3" d="" stroke="none" fill="#0f358a" fill-rule="evenodd"></path><path id="path4" d="M181.325 27.896 C 175.599 29.073,170.774 30.176,170.604 30.345 C 170.274 30.676,175.806 44.410,176.583 45.187 C 176.838 45.442,180.456 41.726,184.623 36.928 C 188.790 32.130,192.717 27.628,193.350 26.923 L 194.501 25.641 193.119 25.698 C 192.360 25.729,187.052 26.718,181.325 27.896 M204.089 26.638 C 212.472 36.508,220.773 45.549,221.121 45.190 C 221.837 44.451,227.390 30.619,227.091 30.319 C 226.774 30.003,205.320 25.641,204.079 25.641 C 203.347 25.641,203.349 25.766,204.089 26.638 M189.312 39.177 C 180.904 48.871,180.141 49.926,181.050 50.599 C 181.601 51.007,185.842 53.403,190.476 55.925 L 198.901 60.510 207.855 55.561 C 212.780 52.839,216.999 50.432,217.231 50.212 C 217.591 49.870,199.907 29.027,198.925 28.636 C 198.733 28.559,194.407 33.303,189.312 39.177 M154.809 39.123 C 149.542 42.744,145.323 45.797,145.434 45.909 C 145.594 46.068,169.099 47.863,171.031 47.863 C 171.294 47.863,171.510 47.610,171.510 47.300 C 171.510 46.014,165.544 32.481,164.990 32.509 C 164.659 32.526,160.077 35.502,154.809 39.123 M229.136 39.579 C 225.442 48.547,225.385 48.052,230.057 47.638 C 232.172 47.451,238.006 47.019,243.020 46.678 C 248.034 46.337,252.216 45.980,252.312 45.883 C 252.560 45.636,233.176 32.479,232.564 32.479 C 232.287 32.479,230.745 35.674,229.136 39.579 M144.168 53.630 C 144.180 57.160,145.781 79.304,146.044 79.567 C 146.163 79.686,150.844 78.435,156.446 76.787 L 166.632 73.789 169.569 63.533 C 171.185 57.892,172.475 53.244,172.436 53.205 C 172.397 53.166,167.749 52.838,162.108 52.477 C 156.467 52.117,150.121 51.667,148.006 51.478 L 144.160 51.135 144.168 53.630 M237.037 52.264 C 230.613 52.720,225.309 53.138,225.251 53.195 C 225.193 53.251,226.492 57.908,228.137 63.543 L 231.128 73.789 241.299 76.781 C 246.893 78.427,251.556 79.688,251.660 79.584 C 251.887 79.357,253.541 56.488,253.553 53.419 L 253.561 51.282 251.140 51.359 C 249.808 51.402,243.462 51.809,237.037 52.264 M132.479 61.050 C 129.345 65.783,126.330 70.356,125.779 71.213 L 124.778 72.771 132.565 75.991 C 136.849 77.761,140.400 79.144,140.458 79.064 C 140.722 78.695,138.795 52.423,138.505 52.434 C 138.324 52.440,135.613 56.318,132.479 61.050 M258.668 54.843 C 258.656 56.175,258.298 62.137,257.873 68.091 C 257.447 74.046,257.157 78.981,257.229 79.059 C 257.300 79.137,260.857 77.742,265.133 75.959 L 272.908 72.716 271.924 71.185 C 266.563 62.845,259.459 52.443,259.117 52.434 C 258.882 52.427,258.680 53.511,258.668 54.843 M175.050 62.808 C 173.769 67.268,172.806 71.002,172.911 71.107 C 173.142 71.337,191.540 63.840,192.205 63.245 C 192.568 62.920,178.514 54.701,177.596 54.701 C 177.477 54.701,176.331 58.349,175.050 62.808 M212.358 58.785 C 208.343 61.013,205.266 63.022,205.520 63.249 C 206.191 63.849,224.582 71.335,224.814 71.102 C 225.104 70.813,220.343 54.698,219.974 54.718 C 219.800 54.727,216.373 56.557,212.358 58.785 M122.796 78.225 C 122.102 80.313,118.169 101.425,118.473 101.425 C 119.592 101.425,138.497 84.111,137.803 83.722 C 134.395 81.815,122.991 77.638,122.796 78.225 M267.027 80.628 C 263.004 82.310,259.597 83.803,259.456 83.944 C 259.177 84.223,278.650 101.425,279.244 101.425 C 279.634 101.425,275.118 78.336,274.635 77.859 C 274.473 77.700,271.049 78.946,267.027 80.628 M154.561 82.550 C 150.724 83.686,147.582 84.814,147.581 85.056 C 147.577 85.775,155.237 99.691,155.645 99.703 C 155.851 99.710,156.789 97.856,157.730 95.584 C 158.671 93.312,160.477 88.953,161.744 85.897 C 164.494 79.265,164.948 79.476,154.561 82.550 M235.977 85.897 C 237.243 88.953,239.050 93.312,239.991 95.584 C 240.932 97.856,241.870 99.707,242.076 99.697 C 242.483 99.676,250.144 85.761,250.139 85.051 C 250.136 84.619,235.672 80.286,234.358 80.323 C 233.931 80.335,234.541 82.435,235.977 85.897 M249.863 96.382 C 247.092 101.440,244.829 105.862,244.834 106.208 C 244.845 106.971,254.660 124.786,255.069 124.786 C 255.654 124.786,276.386 106.368,276.230 105.987 C 276.105 105.683,260.766 92.135,255.799 87.942 C 255.010 87.276,254.300 88.286,249.863 96.382 M131.864 96.646 C 126.248 101.555,121.576 105.766,121.482 106.003 C 121.275 106.529,141.749 124.501,142.555 124.501 C 142.870 124.501,145.394 120.400,148.165 115.387 L 153.202 106.272 150.278 100.857 C 145.285 91.611,143.211 88.098,142.633 87.905 C 142.327 87.803,137.481 91.736,131.864 96.646 M269.231 119.179 C 263.903 123.887,259.485 127.909,259.414 128.115 C 259.281 128.495,273.379 134.473,274.407 134.473 C 274.715 134.473,275.958 129.409,277.172 123.219 C 278.385 117.030,279.494 111.645,279.636 111.254 C 280.204 109.686,278.521 110.968,269.231 119.179 M120.446 122.792 C 121.721 129.217,123.024 134.473,123.341 134.473 C 124.369 134.473,138.479 128.540,138.326 128.172 C 138.041 127.490,119.138 111.111,118.635 111.111 C 118.356 111.111,119.171 116.368,120.446 122.792 M237.759 122.072 C 235.532 127.482,233.885 131.974,234.098 132.054 C 234.561 132.226,249.542 127.856,249.976 127.422 C 250.254 127.144,243.165 113.656,242.224 112.671 C 241.995 112.432,239.986 116.662,237.759 122.072 M151.340 120.004 C 148.361 125.443,147.590 127.290,148.154 127.639 C 149.121 128.237,163.566 132.351,163.817 132.100 C 164.141 131.775,156.306 113.165,155.772 112.992 C 155.496 112.903,153.502 116.058,151.340 120.004 M145.666 135.755 C 145.118 140.649,143.960 160.677,144.212 160.889 C 144.406 161.052,172.219 159.228,172.436 159.037 C 172.733 158.778,166.722 139.180,166.199 138.698 C 165.630 138.174,147.422 132.716,146.362 132.751 C 146.163 132.758,145.850 134.110,145.666 135.755 M240.766 135.582 C 235.766 137.073,231.460 138.652,231.198 139.090 C 230.761 139.820,225.090 158.908,225.275 159.026 C 225.568 159.212,253.326 161.015,253.522 160.861 C 253.782 160.656,252.624 140.832,252.056 135.755 C 251.647 132.109,252.375 132.120,240.766 135.582 M134.188 135.637 C 131.368 136.853,128.097 138.241,126.919 138.721 L 124.779 139.595 131.425 149.570 C 138.341 159.947,139.031 160.694,139.031 157.799 C 139.031 155.727,140.035 140.594,140.456 136.325 C 140.812 132.710,140.945 132.725,134.188 135.637 M257.186 134.900 C 257.350 135.762,257.792 141.660,258.170 148.006 C 258.548 154.352,259.035 159.544,259.253 159.544 C 259.470 159.544,262.645 155.047,266.308 149.550 L 272.968 139.557 271.099 138.780 C 255.665 132.367,256.765 132.674,257.186 134.900 M173.839 145.157 C 174.449 147.272,175.497 150.990,176.168 153.420 L 177.387 157.836 182.568 155.030 C 191.689 150.091,192.583 149.578,192.585 149.288 C 192.588 148.956,174.080 141.311,173.273 141.311 C 172.974 141.311,173.229 143.041,173.839 145.157 M214.390 145.181 C 209.299 147.283,205.138 149.131,205.144 149.288 C 205.159 149.688,219.120 157.265,219.843 157.265 C 220.169 157.265,220.567 156.816,220.727 156.268 C 220.886 155.719,221.807 152.520,222.772 149.158 C 223.738 145.796,224.677 142.655,224.860 142.178 C 225.394 140.786,224.213 141.125,214.390 145.181 M189.174 157.079 C 184.316 159.773,180.249 162.057,180.135 162.155 C 179.826 162.420,198.352 183.476,198.894 183.476 C 199.331 183.476,217.211 163.334,217.522 162.492 C 217.705 161.995,199.811 152.129,198.780 152.159 C 198.354 152.171,194.031 154.385,189.174 157.079 M155.157 165.485 C 150.080 165.843,145.784 166.277,145.610 166.451 C 145.436 166.625,149.807 169.775,155.324 173.451 C 160.840 177.127,165.429 180.053,165.520 179.954 C 165.862 179.579,171.510 165.634,171.510 165.163 C 171.510 164.557,167.117 164.643,155.157 165.485 M226.211 165.169 C 226.211 165.593,231.850 179.438,232.232 179.954 C 232.306 180.053,236.890 177.121,242.418 173.437 C 248.661 169.277,252.191 166.595,251.733 166.360 C 250.085 165.511,226.211 164.397,226.211 165.169 M173.328 174.414 C 171.665 178.525,170.383 181.964,170.479 182.056 C 170.849 182.404,193.939 186.877,194.171 186.646 C 194.500 186.316,177.757 167.277,176.972 167.087 C 176.632 167.005,174.992 170.302,173.328 174.414 M211.794 176.743 C 207.155 182.085,203.457 186.553,203.577 186.673 C 203.810 186.906,226.918 182.363,227.286 182.011 C 227.700 181.615,221.368 166.961,220.798 166.996 C 220.484 167.015,216.433 171.401,211.794 176.743 " stroke="none" fill="#002f8e" fill-rule="evenodd"></path></g></svg>